<svg id="Capa_1" enable-background="new 0 0 508.359 508.359" height="512" viewBox="0 0 508.359 508.359" width="512" xmlns="http://www.w3.org/2000/svg"><g><path d="m262.128 309.709-60.93 60.93-13.19 2.77-8.95 19.37-28.77 28.77-18.11-.48-4.03 22.62-64.67 64.67c-22.86-84.721-23.915-88.677-37.86-140.32 14.13-14.12 27.52-27.51 40.05-40.05 4.3-4.3 11.01 1.51 15.1-2.58 3.26-3.25 3.92-16.44 7.04-19.56 10.4-10.4 20.02-20.02 28.77-28.77 5.54-5.55 10.09-.98 14.92-5.8 2.27-2.28 5.11-14.24 7.22-16.34 19.02-19.03 31.08-31.09 34.31-34.32 53.542 53.542 33.114 33.117 89.1 89.09z" fill="#eef4ff"/><path d="m262.128 309.709-60.93 60.93-13.19 2.77-8.95 19.37-28.77 28.77-18.11-.48-4.03 22.62-64.67 64.67c-19.782-73.313-16.896-62.636-18.93-70.16l173.03-173.03z" fill="#d9e6fc"/><path d="m150.288 421.549-22.14 22.14c-38.915-72.069-23.138-42.855-62.48-115.697l22.14-22.14c38.891 72.008 23.146 42.851 62.48 115.697z" fill="#d9e6fc"/><path d="m119.048 363.693 31.24 57.856-22.14 22.139-31.24-57.855z" fill="#bed9fd"/><path d="m201.2 370.637-22.147 22.147c-38.41-71.134-24.159-44.741-62.473-115.704l22.132-22.147c38.885 72.012 23.143 42.864 62.488 115.704z" fill="#d9e6fc"/><path d="m201.2 370.637-22.147 22.147-31.24-57.856 22.14-22.139z" fill="#bed9fd"/><path d="m482.741 134.35-218.821 185.95-67.557-33.922-67.175-67.175 219.203-219.203z" fill="#ff7b4a"/><path d="m184.552 162.864h310v95h-310z" fill="#f23f56" transform="matrix(.707 -.707 .707 .707 -49.298 301.714)"/><path d="m229.965 161.777h152v30h-152z" fill="#eef4ff" transform="matrix(.707 -.707 .707 .707 -35.385 268.126)"/><path d="m235.268 174.58h152v15h-152z" fill="#d9e6fc" transform="matrix(.707 -.707 .707 .707 -37.582 273.43)"/><path d="m293.793 141.948h30v64h-30z" fill="#61729b" transform="matrix(.707 -.707 .707 .707 -32.557 269.298)"/><path d="m305.107 169.262h30v32h-30z" fill="#47568c" transform="matrix(.707 -.707 .707 .707 -37.243 280.612)"/></g></svg>