<svg id="Capa_1" enable-background="new 0 0 511.934 511.934" height="512" viewBox="0 0 511.934 511.934" width="512" xmlns="http://www.w3.org/2000/svg"><g><path d="m414.92 269.663v103.02c0 16.54-13.46 30-30 30h-258c-16.54 0-30-13.46-30-30v-103.02c14.111 6.397 117.323 53.187 133.61 60.57 16.17 7.33 34.62 7.33 50.78 0 14.114-6.399 115.997-52.586 133.61-60.57z"/><path d="m511.784 170.762c-.611-11.659-7.417-21.822-18.119-26.816l-224.425-104.732c-8.465-3.95-18.174-3.952-26.637 0l-224.428 104.732c-24.399 11.385-24.172 46.121.315 57.222 185.484 84.087 214.037 97.032 224.43 101.744 8.273 3.746 17.723 3.748 26 0 124.014-56.222 89.056-40.375 213-96.562v254.332c0 8.284 6.716 15 15 15s15-6.716 15-15c0-309.346.076-288.265-.136-289.92z"/></g></svg>