<svg height="511pt" viewBox="0 0 511 511.99883" width="511pt" xmlns="http://www.w3.org/2000/svg"><path d="m301.183594 290.496094c0 19.5-12.296875 35.699218-29.695313 42v13.5c0 8.398437-6.601562 14.996094-15 14.996094-8.402343 0-15-6.597657-15-14.996094v-13.199219c-17.398437-6.300781-30.296875-22.800781-30.296875-42.300781 0-8.398438 6.898438-15 14.996094-15 8.402344 0 15 6.601562 15 15 0 8.101562 6.898438 15 15 15h.300781c8.398438-.296875 14.699219-6.898438 14.699219-15 0-8.398438-6.300781-14.699219-14.699219-15h-.300781c-24.597656 0-44.996094-20.398438-44.996094-44.996094 0-19.800781 12.898438-36.296875 30.296875-42.296875v-22.199219c0-8.402344 6.597657-15 15-15 8.398438 0 15 6.597656 15 15v22.199219c17.398438 6.300781 29.695313 22.796875 29.695313 42.296875 0 8.101562-6.597656 15-14.996094 15-8.101562 0-15-6.898438-15-15 0-8.398438-6.300781-14.699219-14.699219-15h-.300781c-8.101562 0-15 6.601562-15 15 0 8.101562 6.898438 15 15 15h.300781c24.898438.300781 44.695313 20.097656 44.695313 44.996094zm0 0" fill="#fdbf00"/><g fill="#64e1dc"><path d="m394.183594 429.390625c-38.101563 33.296875-87 51.597656-137.695313 51.597656v16c0 11.097657-11.699219 18.296875-21.597656 13.5l-74.996094-46c-11.101562-5.699219-11.101562-21.300781 0-27l74.996094-44.996093c9.898437-4.800782 21.296875 2.398437 21.597656 13.199218v15.296875c37.496094 0 73.496094-13.796875 101.09375-38.996093 6.898438-6.300782 17.402344-4.800782 22.5 2.699218l16.796875 24.898438c4.203125 6.300781 3.003906 14.699218-2.695312 19.800781zm0 0"/><path d="m91.496094 255.988281c3.019531 0 18 0 14.980468 0 11.148438 0 18.402344-11.722656 13.414063-21.699219l-44.976563-74.996093c-5.53125-11.054688-21.304687-11.054688-26.832031 0l-45.980469 74.996093c-4.984374 9.976563 2.265626 21.710938 13.417969 21.710938 3.019531 0 19 0 15.980469 0 0 50.679688 18.335938 99.601562 51.644531 137.746094 4.953125 5.691406 13.351563 6.796875 19.613281 2.621094l25.121094-16.742188c3.632813-2.429688 6.035156-6.3125 6.5625-10.664062.542969-4.335938-.847656-8.699219-3.808594-11.921876-25.234374-27.667968-39.136718-63.566406-39.136718-101.050781zm0 0"/><path d="m353.082031 74.507812-74.996093 45c-9.898438 4.796876-21.296876-2.402343-21.597657-13.199218v-15.300782c-37.5 0-73.496093 13.796876-101.09375 39-6.601562 6.300782-17.402343 5.097657-22.5-2.703124l-16.800781-24.898438c-4.199219-6.300781-3-14.699219 2.699219-19.800781 38.101562-33.296875 86.996093-51.59375 137.695312-51.59375v-16c0-11.097657 11.699219-18.300781 21.597657-13.5l74.996093 46c11.101563 5.695312 11.101563 21.296875 0 26.996093zm0 0"/></g><path d="m497.457031 256c-3.023437 0-19 0-15.980469 0 0-50.683594-18.339843-99.605469-51.648437-137.75-4.9375-5.695312-13.328125-6.824219-19.613281-2.621094l-25.105469 16.742188c-7.640625 5.113281-8.9375 15.804687-2.769531 22.589844 25.238281 27.667968 39.140625 63.554687 39.140625 101.039062-3.023438 0-18 0-14.980469 0-11.152344 0-18.402344 11.730469-13.417969 21.707031l44.980469 74.996094c5.527344 11.054687 21.304688 11.054687 26.832031 0l45.976563-74.996094c4.988281-9.976562-2.265625-21.707031-13.414063-21.707031zm0 0" fill="#00c8c8"/><path d="m301.183594 290.496094c0 19.5-12.296875 35.699218-29.695313 42v13.5c0 8.398437-6.601562 14.996094-15 14.996094v-55.496094c8.398438-.296875 14.699219-6.898438 14.699219-15 0-8.398438-6.300781-14.699219-14.699219-15v-29.996094c24.898438.300781 44.695313 20.097656 44.695313 44.996094zm0 0" fill="#ff9100"/><path d="m256.488281 215.5v-64.496094c8.398438 0 15 6.597656 15 15v22.199219c17.398438 6.300781 29.695313 22.796875 29.695313 42.296875 0 8.101562-6.597656 15-14.996094 15-8.101562 0-15-6.898438-15-15 0-8.398438-6.300781-14.699219-14.699219-15zm0 0" fill="#ff9100"/><path d="m256.488281 106.308594v-91.296875c0-11.097657 11.699219-18.300781 21.597657-13.5l74.996093 46c11.101563 5.699219 11.101563 21.296875 0 27l-74.996093 44.996093c-9.898438 4.796876-21.296876-2.402343-21.597657-13.199218zm0 0" fill="#00c8c8"/><path d="m394.183594 429.390625c-38.101563 33.296875-87 51.597656-137.695313 51.597656v-59.996093c37.496094 0 73.496094-13.800782 101.09375-39 6.898438-6.300782 17.402344-4.800782 22.5 2.699218l16.796875 24.898438c4.203125 6.300781 3.003906 14.699218-2.695312 19.800781zm0 0" fill="#00c8c8"/></svg>