<svg id="male" enable-background="new 0 0 300 300" height="512" viewBox="0 0 300 300" width="512" xmlns="http://www.w3.org/2000/svg"><g><circle cx="128.735" cy="130" fill="#e5efef" r="92"/><g><path d="m202.959 202.829-34.347-15.612c.031-.409.123-.8.123-1.217v-8h-32v8c0 .417.091.808.123 1.217l-34.347 15.612c-13.242 6.019-21.776 19.449-21.776 34.269v32.902h144v-32.902c0-14.82-8.534-28.25-21.776-34.269z" fill="#fff"/><path d="m224.735 274h-144c-2.211 0-4-1.791-4-4v-32.902c0-16.369 9.469-31.25 24.121-37.91l31.879-14.492v-6.696c0-2.209 1.789-4 4-4h32c2.211 0 4 1.791 4 4v6.695l31.879 14.492c14.652 6.66 24.121 21.541 24.121 37.91v32.903c0 2.209-1.789 4-4 4zm-140-8h136v-28.902c0-13.24-7.629-25.262-19.434-30.629l-34.344-15.611c-1.527-.695-2.461-2.271-2.332-3.945.02-.24.047-.475.078-.711l.017-4.202h-23.984v4c.062.438.09.672.109.912.129 1.674-.805 3.25-2.332 3.945l-34.344 15.611c-11.805 5.367-19.434 17.389-19.434 30.629z" fill="#4c241d"/></g><g fill="#4c241d"><path d="m108.735 274c-2.211 0-4-1.791-4-4v-20c0-2.209 1.789-4 4-4s4 1.791 4 4v20c0 2.209-1.789 4-4 4z"/><path d="m196.735 274c-2.211 0-4-1.791-4-4v-20c0-2.209 1.789-4 4-4s4 1.791 4 4v20c0 2.209-1.789 4-4 4z"/><path d="m46.735 74c-7.719 0-14-6.281-14-14s6.281-14 14-14 14 6.281 14 14-6.281 14-14 14zm0-20c-3.309 0-6 2.691-6 6s2.691 6 6 6 6-2.691 6-6-2.691-6-6-6z"/><path d="m246.735 166c-7.719 0-14-6.281-14-14s6.281-14 14-14 14 6.281 14 14-6.281 14-14 14zm0-20c-3.309 0-6 2.691-6 6s2.691 6 6 6 6-2.691 6-6-2.691-6-6-6z"/><circle cx="262.735" cy="92" r="4.529"/><circle cx="58.735" cy="100" r="4.529"/><circle cx="78.735" cy="36" r="4.529"/><path d="m237.388 71.348c-1.023 0-2.047-.391-2.828-1.172-1.562-1.562-1.562-4.094 0-5.656l14.695-14.695c1.562-1.562 4.094-1.562 5.656 0s1.562 4.094 0 5.656l-14.695 14.695c-.782.781-1.805 1.172-2.828 1.172z"/><path d="m252.083 71.348c-1.023 0-2.047-.391-2.828-1.172l-14.696-14.696c-1.562-1.562-1.562-4.094 0-5.656s4.094-1.562 5.656 0l14.695 14.695c1.562 1.562 1.562 4.094 0 5.656-.78.782-1.804 1.173-2.827 1.173z"/><path d="m53.388 191.348c-1.023 0-2.047-.391-2.828-1.172-1.562-1.562-1.562-4.094 0-5.656l14.695-14.695c1.562-1.562 4.094-1.562 5.656 0s1.562 4.094 0 5.656l-14.695 14.695c-.782.781-1.805 1.172-2.828 1.172z"/><path d="m68.083 191.348c-1.023 0-2.047-.391-2.828-1.172l-14.696-14.696c-1.562-1.562-1.562-4.094 0-5.656s4.094-1.562 5.656 0l14.695 14.695c1.562 1.562 1.562 4.094 0 5.656-.78.782-1.804 1.173-2.827 1.173z"/></g><g><path d="m204.735 120c-.294 0-.336-2.941-.288-6.301.083-5.821-3.813-10.999-9.466-12.394-27.643-6.821-57.325-5.547-84.267 2.727-3.531 1.084-5.848 4.473-5.744 8.166.105 3.746.133 7.801-.236 7.801-5.644 0-10.196 4.676-9.993 10.365.114 3.199 2.081 6.09 4.734 7.88 3.217 2.171 5.98 2.017 8.431 1.192 3.968 19.359 18.022 35.548 37.427 41.794 5.563 1.791 11.581 1.62 17.141-.182l1.775-.575c19.093-6.188 33.023-22.039 37.173-41.079 2.441.861 5.222 1.012 8.371-.95 2.549-1.588 4.495-4.194 4.862-7.174.752-6.09-3.979-11.27-9.92-11.27z" fill="#e7d1c4"/><path d="m153.489 186.5c-3.195 0-6.352-.486-9.379-1.459-19.203-6.182-33.934-21.713-39.223-41.037-2.656.023-5.172-.771-7.648-2.441-3.914-2.645-6.344-6.777-6.492-11.057-.137-3.836 1.254-7.469 3.914-10.227 1.781-1.848 3.973-3.139 6.379-3.791 0-.979-.016-2.326-.07-4.176-.152-5.531 3.375-10.508 8.574-12.104 28.059-8.621 58.746-9.611 86.395-2.785 7.48 1.844 12.621 8.562 12.508 16.334-.016 1.139-.02 2.035-.012 2.74 2.602.713 4.969 2.17 6.793 4.23 2.652 3.002 3.895 7.021 3.398 11.029-.492 4.002-3.004 7.771-6.719 10.084-2.414 1.504-4.957 2.256-7.52 2.15-5.441 18.932-20.051 34.176-38.902 40.287l-1.777.574c-3.383 1.1-6.824 1.649-10.219 1.649zm-45.582-51.062c.691 0 1.383.18 1.996.533.992.57 1.691 1.541 1.922 2.664 3.738 18.232 17.047 33.096 34.734 38.791 4.633 1.486 9.711 1.43 14.684-.182l1.777-.574c17.379-5.635 30.598-20.244 34.492-38.127.246-1.121.961-2.084 1.961-2.643 1.008-.561 2.195-.66 3.281-.277 1.816.646 3.246.475 4.926-.572 1.684-1.049 2.805-2.645 3.008-4.27.215-1.76-.301-3.447-1.457-4.754-1.137-1.289-2.777-2.027-4.496-2.027-1.07 0-2.137-.449-2.887-1.211-1.379-1.396-1.488-2.873-1.402-9.146.059-3.967-2.641-7.52-6.422-8.453-26.266-6.482-55.434-5.531-82.133 2.668-1.777.545-2.977 2.285-2.922 4.232.23 8.275-.023 9.342-1.32 10.676-.754.775-1.832 1.234-2.914 1.234-1.645 0-3.176.65-4.316 1.834-1.141 1.182-1.738 2.74-1.68 4.389.062 1.707 1.203 3.51 2.977 4.709 1.938 1.307 3.371 1.238 4.914.715.418-.141.847-.209 1.277-.209zm100.617-16.479h.039z" fill="#4c241d"/></g><g><path d="m184.735 66h-60v-25.631c0-5.726 4.642-10.369 10.369-10.369h39.263c5.726 0 10.369 4.642 10.369 10.369v25.631z" fill="#fff"/><path d="m184.735 70h-60c-2.211 0-4-1.791-4-4v-25.631c0-7.924 6.445-14.369 14.367-14.369h39.266c7.922 0 14.367 6.445 14.367 14.369v25.631c0 2.209-1.789 4-4 4zm-56-8h52v-21.631c0-3.512-2.855-6.369-6.367-6.369h-39.266c-3.512 0-6.367 2.857-6.367 6.369z" fill="#4c241d"/></g><circle cx="172.735" cy="138" fill="#4c241d" r="4"/><circle cx="136.735" cy="138" fill="#4c241d" r="4"/><path d="m152.532 272.262c-2.211 0-4-1.791-4-4v-85.092c0-2.209 1.789-4 4-4s4 1.791 4 4v85.092c0 2.209-1.789 4-4 4z" fill="#4c241d"/><g><path d="m168.735 174h-28c0-4.418-3.582-8-8-8l-24-16 18.392 70.33c.782 6.651 7.929 10.509 13.919 7.514l11.689-5.844 16.108 6.904c5.936 2.544 12.649-1.339 13.403-7.753l18.489-71.151-24 16c-4.418 0-8 3.582-8 8z" fill="#ccc"/><path d="m172.665 233.699c-1.824 0-3.652-.371-5.395-1.119l-14.406-6.172-10.027 5.014c-3.973 1.988-8.691 1.916-12.602-.195-3.824-2.064-6.441-5.836-7.043-10.129l-18.328-70.086c-.418-1.605.195-3.305 1.551-4.27 1.348-.965 3.16-.99 4.539-.07l23.102 15.4c4.633.51 8.484 3.67 9.996 7.928h21.367c1.512-4.258 5.363-7.418 9.996-7.928l23.102-15.4c1.379-.92 3.18-.893 4.539.068 1.352.963 1.969 2.66 1.551 4.266l-18.426 70.906c-.582 4.197-3.008 7.807-6.688 9.936-2.129 1.23-4.473 1.851-6.828 1.851zm-19.93-15.699c.535 0 1.07.107 1.574.324l16.109 6.904c1.652.705 3.496.6 5.066-.305 1.562-.904 2.578-2.449 2.789-4.24.02-.182.055-.361.102-.539l15.852-60.998-15.273 10.182c-.656.438-1.43.672-2.219.672-2.207 0-4 1.795-4 4 0 2.209-1.789 4-4 4h-28c-2.211 0-4-1.791-4-4 0-2.205-1.793-4-4-4-.789 0-1.562-.234-2.219-.672l-15.25-10.168 15.73 60.158c.047.178.078.359.102.543.219 1.859 1.289 3.436 2.938 4.324 1.645.891 3.555.918 5.223.08l11.688-5.844c.562-.28 1.175-.421 1.788-.421z" fill="#4c241d"/></g><g><path d="m160.735 46h-30.149c-18.695 0-33.851 15.156-33.851 33.851v38.149h30.149c18.695 0 33.851-15.156 33.851-33.851z" fill="#fff"/><path d="m126.884 122h-30.149c-2.211 0-4-1.791-4-4v-38.148c0-20.872 16.981-37.852 37.852-37.852h30.148c2.211 0 4 1.791 4 4v38.148c0 20.872-16.98 37.852-37.851 37.852zm-26.149-8h26.148c16.461 0 29.852-13.391 29.852-29.852v-34.148h-26.148c-16.461 0-29.852 13.391-29.852 29.852z" fill="#4c241d"/></g><g><path d="m148.735 46h30.149c18.695 0 33.851 15.156 33.851 33.851v38.149h-30.149c-18.695 0-33.851-15.156-33.851-33.851" fill="#fff"/><path d="m212.735 122h-30.148c-20.871 0-37.852-16.98-37.852-37.852 0-2.209 1.789-4 4-4s4 1.791 4 4c0 16.461 13.391 29.852 29.852 29.852h26.148v-34.148c0-16.461-13.391-29.852-29.852-29.852h-30.148c-2.211 0-4-1.791-4-4s1.789-4 4-4h30.148c20.871 0 37.852 16.98 37.852 37.852v38.148c0 2.209-1.789 4-4 4z" fill="#4c241d"/></g><path d="m168.735 230c-2.211 0-4-1.791-4-4v-24c0-2.209 1.789-4 4-4s4 1.791 4 4v24c0 2.209-1.789 4-4 4z" fill="#4c241d"/><path d="m140.735 230c-2.211 0-4-1.791-4-4v-12c0-2.209 1.789-4 4-4s4 1.791 4 4v12c0 2.209-1.789 4-4 4z" fill="#4c241d"/><path d="m196.735 76.369c-2.211 0-4-1.791-4-4 0-3.512-2.855-6.369-6.367-6.369h-63.266c-3.512 0-6.367 2.857-6.367 6.369 0 2.209-1.789 4-4 4s-4-1.791-4-4c0-7.924 6.445-14.369 14.367-14.369h63.266c7.922 0 14.367 6.445 14.367 14.369 0 2.209-1.789 4-4 4z" fill="#4c241d"/><path d="m140.735 206c-2.211 0-4-1.791-4-4v-16c0-2.209 1.789-4 4-4s4 1.791 4 4v16c0 2.209-1.789 4-4 4z" fill="#4c241d"/><path d="m160.735 166h-12c-2.211 0-4-1.791-4-4s1.789-4 4-4h12c2.211 0 4 1.791 4 4s-1.789 4-4 4z" fill="#e66353"/></g></svg>